<svg id="visual" viewBox="0 0 900 450" width="900" height="450" xmlns="http://www.w3.org/2000/svg" xmlns:xlink="http://www.w3.org/1999/xlink" version="1.1"><rect x="0" y="0" width="900" height="450" fill="#000000"></rect><path d="M0 330L129 277L257 271L386 263L514 308L643 283L771 264L900 269L900 451L771 451L643 451L514 451L386 451L257 451L129 451L0 451Z" fill="#ff0066"></path><path d="M0 326L129 357L257 306L386 338L514 335L643 352L771 329L900 355L900 451L771 451L643 451L514 451L386 451L257 451L129 451L0 451Z" fill="#e10449"></path><path d="M0 335L129 373L257 347L386 374L514 330L643 372L771 357L900 354L900 451L771 451L643 451L514 451L386 451L257 451L129 451L0 451Z" fill="#c30c2f"></path><path d="M0 388L129 377L257 364L386 397L514 405L643 386L771 386L900 365L900 451L771 451L643 451L514 451L386 451L257 451L129 451L0 451Z" fill="#a51218"></path><path d="M0 423L129 403L257 421L386 402L514 419L643 396L771 410L900 421L900 451L771 451L643 451L514 451L386 451L257 451L129 451L0 451Z" fill="#871400"></path></svg>